<svg id="Layer_1" data-name="Layer 1" xmlns="http://www.w3.org/2000/svg" viewBox="0 0 1728 1117"><defs><style>.cls-1{fill:none;stroke:#000;stroke-miterlimit:10;stroke-width:3px;}</style></defs><polygon id="AG_B16" class="cls-1" points="650.25 695.19 853.82 940.24 1004.92 929.21 983.98 873.18 908.71 878.55 867.12 832.15 907.01 799.04 926.82 821.68 963.04 814.32 831.18 656.42 701.01 667.17 650.25 695.19"/><polygon id="AG_B18" class="cls-1" points="639.56 544.25 581.18 558.5 540.05 435.01 715.64 190.41 777.12 233.32 810.74 334.6 693.08 490.3 682.02 461.99 691.97 448.46 637.79 403.6 606.83 445.18 639.56 544.25"/><polygon id="AG_B18A" class="cls-1" points="1054.22 158.38 1173.11 347.46 1136.59 349.26 1126.2 330.99 1076.07 358.93 1101.85 399.75 1220.03 406.19 1229.34 464.93 1049.92 458.12 900.59 222.49 894.5 175.22 1054.22 158.38"/></svg>